HIERARCHY
ROOT Hips
{
	OFFSET	0.00	0.00	0.00
	CHANNELS 6 Xposition Yposition Zposition Zrotation Xrotation Yrotation
	JOINT LeftUpLeg
	{
		OFFSET	 0.126116	-0.014019	-0.065224
		CHANNELS 3 Zrotation Xrotation Yrotation
		JOINT LeftLeg
		{
			OFFSET	 0.000000	 0.000000	 0.569914
			CHANNELS 3 Zrotation Xrotation Yrotation
			JOINT LeftFoot
			{
				OFFSET	 0.000000	 0.000000	 0.544423
				CHANNELS 3 Zrotation Xrotation Yrotation
				JOINT LeftToeBase
				{
					OFFSET	 0.000000	 0.000000	 0.207117
					CHANNELS 3 Zrotation Xrotation Yrotation
					End Site
					{
						OFFSET	 0.000000	 0.000000	 0.207117
					}
				}
			}
		}
	}
	JOINT RightUpLeg
	{
		OFFSET	-0.124023	-0.008373	-0.065224
		CHANNELS 3 Zrotation Xrotation Yrotation
		JOINT RightLeg
		{
			OFFSET	 0.000000	 0.000000	 0.570047
			CHANNELS 3 Zrotation Xrotation Yrotation
			JOINT RightFoot
			{
				OFFSET	 0.000000	 0.000000	 0.544354
				CHANNELS 3 Zrotation Xrotation Yrotation
				JOINT RightToeBase
				{
					OFFSET	 0.000000	 0.000000	 0.207540
					CHANNELS 3 Zrotation Xrotation Yrotation
					End Site
					{
						OFFSET	 0.000000	 0.000000	 0.207540
					}
				}
			}
		}
	}
	JOINT Spine
	{
		OFFSET	 0.000184	-0.007763	 0.117403
		CHANNELS 3 Zrotation Xrotation Yrotation
		JOINT Spine1
		{
			OFFSET	 0.000000	 0.000000	 0.137269
			CHANNELS 3 Zrotation Xrotation Yrotation
			JOINT Spine2
			{
				OFFSET	 0.000000	 0.000000	 0.156879
				CHANNELS 3 Zrotation Xrotation Yrotation
				JOINT LeftShoulder
				{
					OFFSET	 0.080501	-0.002496	 0.160144
					CHANNELS 3 Zrotation Xrotation Yrotation
					JOINT LeftArm
					{
						OFFSET	 0.000000	 0.000000	 0.164363
						CHANNELS 3 Zrotation Xrotation Yrotation
						JOINT LeftForeArm
						{
							OFFSET	 0.000000	 0.000000	 0.364576
							CHANNELS 3 Zrotation Xrotation Yrotation
							JOINT LeftHand
							{
								OFFSET	 0.000000	 0.000000	 0.360812
								CHANNELS 3 Zrotation Xrotation Yrotation
								JOINT LeftHandIndex1
								{
									OFFSET	 0.000000	 0.000000	 0.086006
									CHANNELS 3 Zrotation Xrotation Yrotation
									JOINT LeftHandIndex2
									{
										OFFSET	 0.000000	 0.000000	 0.047236
										CHANNELS 3 Zrotation Xrotation Yrotation
										JOINT LeftHandIndex3
										{
											OFFSET	-0.004284	-0.000551	 0.038166
											CHANNELS 3 Zrotation Xrotation Yrotation
											End Site
											{
												OFFSET	-0.004284	-0.000551	 0.038166
											}
										}
									}
								}
							}
						}
					}
				}
				JOINT Neck
				{
					OFFSET	 0.000000	 0.000000	 0.176489
					CHANNELS 3 Zrotation Xrotation Yrotation
					JOINT Head
					{
						OFFSET	 0.000000	-0.001747	 0.077940
						CHANNELS 3 Zrotation Xrotation Yrotation
						End Site
						{
							OFFSET	 0.000000	-0.001747	 0.077940
						}
					}
				}
				JOINT RightShoulder
				{
					OFFSET	-0.080363	 0.000306	 0.159706
					CHANNELS 3 Zrotation Xrotation Yrotation
					JOINT RightArm
					{
						OFFSET	 0.000000	 0.000000	 0.164196
						CHANNELS 3 Zrotation Xrotation Yrotation
						JOINT RightForeArm
						{
							OFFSET	 0.000000	 0.000000	 0.365611
							CHANNELS 3 Zrotation Xrotation Yrotation
							JOINT RightHand
							{
								OFFSET	 0.000000	 0.000000	 0.360648
								CHANNELS 3 Zrotation Xrotation Yrotation
								JOINT RightHandIndex1
								{
									OFFSET	 0.000000	 0.000000	 0.069977
									CHANNELS 3 Zrotation Xrotation Yrotation
									JOINT RightHandIndex2
									{
										OFFSET	 0.000000	 0.000000	 0.052305
										CHANNELS 3 Zrotation Xrotation Yrotation
										JOINT RightHandIndex3
										{
											OFFSET	 0.009002	-0.000782	 0.042196
											CHANNELS 3 Zrotation Xrotation Yrotation
											End Site
											{
												OFFSET	 0.009002	-0.000782	 0.042196
											}
										}
									}
								}
							}
						}
					}
				}
			}
		}
	}
}
MOTION
Frames:    9
Frame Time: 0.03333334
-0.058519	-2.199491	 1.162703	 4.959787	-1.441934	-3.666373	 0.548657	-18.192650	-170.602100	 0.991382	-49.543610	 0.485970	 80.611680	 82.604710	-84.883210	-2.369849	 31.539460	-0.068216	-3.336545	-35.660560	-174.273600	 13.550920	-59.770090	 12.427970	 26.667450	 78.844930	-23.304750	 2.358719	 33.036730	 0.104080	-0.472916	 8.747393	 0.785498	 1.884104	 3.056751	 3.419526	-9.206919	-2.725910	-4.287665	-93.924870	 58.990230	 175.413800	 25.816530	 46.038030	-20.034730	-1.675291	-2.461863	-23.398220	 1.165314	-4.906261	-7.259883	-4.869086	 19.247900	-2.786515	-3.884515	 21.434520	 2.205791	-4.808264	 5.545403	 0.146972	-0.079431	-5.070908	 0.182354	-11.103840	 1.596469	 1.988389	 89.783200	 61.644100	-179.997400	-19.237340	 51.028580	 8.329240	-1.482960	-2.883650	 14.728990	-4.942832	 9.827321	 0.592954	 6.294426	 24.923970	-0.542675	 1.878557	 44.756770	-6.986918	 0.525766	 24.278420	 3.568526
-0.059500	-2.221066	 1.163268	 6.197216	-0.270573	-3.834151	-0.592079	-18.142430	-170.592800	 1.640812	-49.017670	 0.972469	 80.034150	 82.751130	-84.681430	-2.367171	 31.980430	-0.078228	-6.614140	-38.553690	-174.412100	 14.817380	-56.077670	 13.023350	 92.326820	 82.770590	-91.508650	 2.359820	 32.874230	 0.100309	-1.054879	 7.926194	 0.605471	 1.999318	 2.600068	 3.936424	-9.743715	-2.691842	-4.558949	-94.249370	 58.996620	 174.721000	 26.084360	 44.507060	-20.077320	-2.493372	-2.422457	-26.474660	 2.036091	-5.636492	-8.178671	-4.856633	 19.566670	-2.807598	-3.863759	 21.699420	 2.184702	-4.798737	 5.657712	 0.140397	-0.016518	-5.138703	 0.274721	-11.422600	 1.525243	 1.756294	 89.642910	 61.815240	 179.666100	-18.315830	 51.664880	 6.546895	-2.601244	-3.136424	 14.492430	-5.425955	 10.782960	-0.074273	 6.258714	 22.423150	-0.579402	 2.154050	 42.433820	-7.230950	 1.042289	 21.966680	 3.315240
-0.059695	-2.246730	 1.162696	 6.589929	 0.531273	-4.278861	-0.856698	-17.255480	-170.316700	 1.908121	-48.315490	 1.161725	 82.952860	 82.914600	-87.762890	-2.361106	 32.920730	-0.099826	-6.341267	-40.763760	-173.736300	 14.460550	-51.794560	 12.066430	 124.678600	 76.819890	-125.817900	 2.355938	 33.439530	 0.113468	-1.323629	 7.239861	 0.841669	 2.072274	 2.660185	 4.078650	-9.832726	-2.450352	-4.542073	-94.446950	 58.893310	 174.316100	 25.183660	 42.709530	-19.941050	-3.532623	-2.199939	-29.948800	 1.752456	-6.258461	-7.437775	-4.832395	 20.086600	-2.821959	-3.832700	 22.092470	 2.153148	-4.777022	 5.912942	 0.125378	 0.013698	-5.246984	 0.334992	-11.466600	 1.691047	 1.721748	 89.481160	 61.997360	 179.273300	-17.206440	 52.252410	 5.191552	-4.351837	-3.486668	 14.005800	-5.965989	 11.565320	-1.674164	 6.209758	 19.743790	-0.680329	 2.443611	 39.757020	-7.483564	 1.624356	 19.253180	 3.051168
-0.060658	-2.287497	 1.159936	 6.990112	 0.713678	-4.616517	-1.366577	-14.846180	-170.304700	 2.337031	-47.477420	 1.462727	 75.491040	 82.943860	-80.453220	-2.332827	 36.556920	-0.186904	-4.815444	-42.071030	-172.612600	 13.606870	-44.784700	 10.226690	 124.217500	 72.460430	-126.928500	 2.335409	 36.065450	 0.176466	-2.246423	 7.370374	 1.032275	 2.067271	 2.399243	 4.102596	-9.457473	-1.826162	-4.303034	-94.543100	 58.937480	 174.104500	 22.572970	 40.677640	-19.830900	-3.962275	-2.284938	-34.004620	 1.203944	-7.442707	-7.603426	-4.847348	 20.509730	-3.034217	-3.787098	 22.662200	 2.106838	-4.729674	 6.466253	 0.092446	 0.112046	-5.403548	 0.345841	-11.016310	 2.256159	 1.498484	 89.358100	 61.937750	 178.978500	-15.346590	 52.802180	 2.657093	-6.405730	-4.056883	 14.076230	-5.963715	 11.480600	-3.916599	 6.165919	 16.156400	-0.666863	 2.875956	 35.247530	-7.851793	 2.366745	 15.632900	 2.749711
-0.064289	-2.331693	 1.155018	 7.352644	 0.472209	-3.983440	-2.162225	-12.051540	-171.481700	 2.606558	-47.211650	 1.654414	 48.960870	 81.608850	-53.612630	-2.237596	 44.552570	-0.405197	-3.907693	-42.011560	-172.778300	 10.077040	-37.640870	 6.666788	 79.451260	 78.313540	-80.054190	 2.339643	 35.566410	 0.164242	-3.531507	 7.544864	 0.534629	 1.999409	 2.712740	 3.836258	-8.860083	-1.438900	-4.034136	-94.490960	 59.275920	 174.159500	 20.097040	 39.104680	-20.724230	-4.193829	-2.321835	-36.353690	 0.480431	-8.689358	-8.232113	-4.884341	 20.650940	-3.292629	-3.760062	 22.995960	 2.079379	-4.666182	 7.201437	 0.047925	 0.214963	-5.479027	 0.262571	-10.225210	 2.832474	 1.594770	 89.355060	 61.557400	 178.985100	-14.107400	 52.858910	 0.297770	-7.731657	-4.585543	 14.582660	-6.053631	 10.783700	-5.209372	 6.222445	 13.163520	-0.229294	 3.068087	 33.021610	-8.011328	 2.924320	 12.804880	 2.551199
-0.070632	-2.392565	 1.145831	 8.481174	-0.487645	-2.667387	-2.313749	-7.358061	-174.000900	-0.230684	-46.884690	-0.425881	 20.812940	 73.882810	-22.127350	-1.964753	 56.305200	-0.846715	-0.617276	-41.679420	-172.048800	 6.707399	-30.748900	 3.832863	 9.130910	 67.725080	-4.380304	 2.334398	 36.182060	 0.179340	-5.603129	 7.977820	-0.643131	 1.652130	 4.060206	 3.490555	-8.047277	-1.325336	-3.842539	-94.397090	 59.084600	 174.392200	 17.758490	 36.573350	-22.492730	-4.696043	-2.108798	-38.503370	 0.094430	-7.901072	-7.946271	-4.896098	 20.905460	-3.445881	-3.735591	 23.295490	 2.054534	-4.575408	 8.238743	-0.016434	 0.361083	-5.418158	 0.283916	-9.103689	 3.648280	 2.214440	 89.226780	 61.413240	 178.687200	-13.090350	 52.762920	-1.107404	-8.584869	-4.587877	 13.881030	-6.570767	 9.912089	-4.982921	 6.336058	 10.041320	 0.352443	 3.295041	 30.196830	-8.195918	 3.411198	 10.266810	 2.398649
-0.080865	-2.460735	 1.131950	 10.287990	-1.374668	-1.136658	-1.112370	-2.287931	-177.831600	 1.484429	-46.388010	 0.819438	 6.347120	 53.529060	-4.157504	-1.101307	 70.276540	-1.897790	-1.441141	-44.247440	-172.981700	 7.651861	-28.547060	 4.041268	 1.129713	 49.384440	 3.883612	 2.353665	 33.758300	 0.120950	-7.882552	 8.276810	-1.428059	 0.714424	 5.639966	 2.073264	-7.089428	-1.317052	-3.070349	-94.212400	 59.469230	 174.728800	 16.536670	 34.456600	-24.772360	-4.257181	-2.669888	-40.816250	 0.997290	-5.893356	-8.555315	-4.809389	 21.298370	-3.062571	-3.666246	 24.131290	 1.984173	-4.497558	 9.115579	-0.072277	 0.388316	-5.344471	 0.225921	-7.875915	 4.628112	 2.497094	 89.019280	 60.726910	 178.238900	-12.132170	 52.044860	-2.945745	-7.384853	-4.538533	 14.743870	-5.886497	 8.871926	-3.006202	 6.376557	 8.672569	 0.531991	 3.389716	 28.952120	-8.271553	 3.653986	 8.979668	 2.330104
-0.090940	-2.539832	 1.120345	 9.407838	-1.896591	 0.304317	 7.679401	 3.537642	 175.678600	 0.602032	-43.221020	 0.170732	 6.033691	 36.488280	 1.866290	-2.262369	 42.850890	-0.354879	-2.662990	-44.311950	-176.241000	 5.659993	-25.806140	 2.803406	 1.702009	 41.173000	 5.253361	 2.372041	 30.896370	 0.055218	-8.504417	 8.698173	-2.084154	-0.278496	 5.558127	 0.901094	-5.651012	-0.883953	-2.392606	-94.060390	 59.799270	 175.008800	 15.398960	 33.811120	-25.575290	-3.126025	-3.770604	-41.720180	 1.767822	-5.044933	-8.461664	-4.745861	 21.725310	-2.815871	-3.592386	 25.001070	 1.909253	-4.438164	 9.776590	-0.115271	 0.293252	-5.398179	 0.176007	-6.647735	 5.106240	 2.709455	 89.064300	 60.265130	 178.367700	-11.899560	 51.487380	-4.124679	-6.044079	-4.058707	 14.415990	-4.695489	 7.231540	-1.283920	 6.404825	 9.807852	 0.639150	 3.314574	 29.943320	-8.211590	 3.593682	 9.300632	 2.346652
-0.100508	-2.644276	 1.110849	 6.949699	-2.799993	 1.420643	 13.822820	 9.938263	 170.127900	-3.262981	-41.360230	-2.391001	 9.421544	 40.125960	-1.799315	-2.381224	 29.442470	-0.021529	-2.192283	-40.978130	 179.479800	 4.879564	-26.560600	 2.527301	 1.438031	 43.945250	 7.583289	 2.374322	 30.485770	 0.046034	-8.858206	 9.558178	-2.383460	-1.870929	 3.660076	-0.614830	-3.569242	 0.308246	-1.230312	-93.963160	 59.465790	 175.268000	 14.651720	 34.312650	-23.397860	-2.261504	-4.727170	-42.816140	 1.284798	-5.233939	-7.533869	-4.641882	 23.131310	-2.618745	-3.504673	 26.007430	 1.820324	-4.314754	 11.127870	-0.205635	 0.145039	-5.321115	 0.083440	-5.090283	 5.188941	 2.729756	 89.377060	 60.295750	 179.078000	-12.856640	 51.519680	-3.784340	-4.327627	-3.071705	 12.417430	-3.281108	 5.063249	 0.016640	 6.386005	 12.792270	 0.537314	 3.046913	 33.274220	-7.993885	 3.225218	 11.243400	 2.454574
